<svg width="885" height="109" viewBox="0 0 885 109" fill="none" xmlns="http://www.w3.org/2000/svg">
    <g clip-path="url(#clip0_108_422)">
        <path d="M761.12 39.38C761.12 28.32 761.23 17.25 761.04 6.19001C761.04 2.98001 762.04 1.96 765.11 2.28C769.22 2.72 774.71 0.510018 777.11 3.20002C779.11 5.49002 777.81 10.85 777.83 14.86C777.94 33.69 777.97 52.52 778.11 71.35C778.163 73.737 778.458 76.1125 778.99 78.44C779.56 81.4222 780.883 84.209 782.835 86.535C784.786 88.861 787.3 90.6489 790.138 91.7285C792.976 92.8081 796.043 93.1434 799.047 92.7026C802.051 92.2617 804.892 91.0594 807.3 89.21C811.9 85.79 813.3 80.47 813.84 75.03C815.04 61.75 814.12 48.44 814.38 35.15C814.38 33.21 814.49 31.26 814.38 29.32C814.23 27.2 814.99 26.23 817.16 26.54C817.46 26.54 817.76 26.54 818.06 26.54C822.23 26.63 827.69 25.16 830.22 27.25C832.75 29.34 830.91 35.11 831.04 39.25C831.41 51.34 830.26 63.47 831.67 75.53C833.12 88.13 839.77 93.35 852.34 92.13C859.1 91.5 863.81 87.66 865.87 80.94C867.033 77.078 867.609 73.0632 867.58 69.03C867.58 48.1 867.64 27.17 867.5 6.25001C867.5 3.05001 868.04 1.57001 871.59 1.97001C874.863 2.28182 878.154 2.3687 881.44 2.23002C883.54 2.23002 884.35 2.85 884.32 5.03C883.94 28.19 885.18 51.37 883.62 74.5C883.01 83.5 880.15 92.05 873.62 98.84C861.13 111.78 838.29 112.03 825.53 99.34C823.81 97.63 822.74 96.34 820.33 98.83C810.12 109.22 797.6 110.76 784.33 106.71C771.38 102.71 765.21 92.6 762.6 80.02C760.07 67.76 761.41 55.3 761.12 42.92C761.09 41.77 761.12 40.57 761.12 39.38Z" fill="#3561EB"/>
        <path d="M622.54 106.43H618.54C604.44 106.49 604.46 106.48 597.44 94.15C594.44 88.84 591.28 83.59 588.21 78.31C587.35 76.84 586.52 75.85 584.4 76C579.04 76.38 573.66 76.47 568.28 76.41C565.69 76.41 564.99 77.3 565.03 79.77C565.16 87.39 565.03 95.02 565.13 102.63C565.19 105.37 564.7 106.84 561.53 106.46C557.29 105.96 551.77 108.3 549.09 105.46C546.62 102.89 548.4 97.46 548.39 93.32C548.33 64.63 548.46 35.94 548.25 7.24999C548.25 2.97999 549.53 2.07 553.49 2.19C562.75 2.47 572.03 2.25999 581.29 2.27999C606.64 2.32999 622 20.28 618.38 45.42C616.93 55.42 613.22 64.12 604.26 69.64C601.51 71.33 602.55 72.85 603.67 74.73C609.49 84.45 615.293 94.18 621.08 103.92C621.48 104.56 621.83 105.18 622.54 106.43ZM565.12 39.57C565.12 45.24 565.12 50.92 565.12 56.57C565.12 58.46 565.34 59.68 567.73 59.57C573.11 59.43 578.51 59.83 583.86 59.44C595.13 58.63 602.46 49.76 601.97 38.02C601.49 26.57 593.58 19.02 582.04 18.96C577.41 18.96 572.78 19.06 568.15 18.96C565.79 18.89 565.05 19.74 565.1 22.06C565.21 27.91 565.12 33.74 565.12 39.57Z" fill="#3561EB"/>
        <path d="M415.1 106.42C410 106.42 404.97 106.37 399.94 106.42C398.25 106.42 397.72 105.42 397 104.19C392.09 95.84 387 87.59 382.2 79.19C380.73 76.63 379.11 75.78 376.2 76.06C371.741 76.5016 367.254 76.5985 362.78 76.35C359.26 76.15 358.54 77.46 358.64 80.68C358.87 88 358.64 95.33 358.77 102.68C358.83 105.46 358.25 106.76 355.14 106.5C351.858 106.255 348.562 106.255 345.28 106.5C342.56 106.67 341.64 105.79 341.72 103C341.9 96 341.78 88.95 341.78 81.93C341.78 56.93 341.89 32.02 341.67 7.07C341.67 2.94 342.89 2.07001 346.67 2.26001C358.45 2.78001 370.36 1.12 382.03 3.03C402.91 6.44 413.92 21.54 412.09 42.6C411.09 54.24 407.16 64.08 396.76 70.39C394.84 71.56 395.84 72.39 396.53 73.59C402.09 82.9233 407.633 92.2833 413.16 101.67C413.96 103.01 415.15 104.23 415.1 106.42ZM358.68 39.49C358.68 45.16 358.76 50.83 358.68 56.49C358.63 58.71 359.17 59.73 361.68 59.65C366.59 59.49 371.52 59.77 376.44 59.57C387.64 59.12 395.5 50.57 395.53 39.06C395.53 28.23 387.99 19.53 377.89 19.06C372.53 18.82 367.15 19.06 361.79 18.97C359.48 18.92 358.66 19.68 358.71 22.03C358.77 27.86 358.68 33.68 358.68 39.49Z" fill="#3561EB"/>
        <path d="M727.44 54.66C727.59 65.11 727.9 75.58 724.26 85.66C721.682 92.9579 716.738 99.185 710.216 103.352C703.694 107.519 695.966 109.387 688.26 108.66C667.59 106.81 655.59 95.83 653.32 75.25C651.55 59.25 650.81 42.98 654.54 27.08C657.86 12.95 666.68 3.6 681.32 1.08C696.15 -1.5 709.69 0.990005 719.42 13.79C725.13 21.29 726.99 30.25 727.42 39.47C727.64 44.48 727.44 49.57 727.44 54.66ZM710.58 54.13C710.58 47.86 710.77 41.59 710.52 35.33C710.3 29.83 708.59 24.73 704.18 21.05C696.83 14.91 688.29 15.05 680.18 18.21C672.07 21.37 669.67 29.3 669.41 37.35C669.05 48.69 669.12 60.05 669.41 71.35C669.58 78.23 671.41 84.9 677.41 89.03C691.52 98.63 709.58 89.81 710.59 72.88C710.89 66.69 710.58 60.4 710.58 54.13Z" fill="#3561EB"/>
        <path d="M8.55004 77.83C9.59569 77.8951 10.6444 77.8951 11.69 77.83C15.02 77.4 16.86 78.32 18.21 81.91C19.1225 84.3825 20.6625 86.5751 22.6787 88.2722C24.695 89.9694 27.1181 91.1128 29.71 91.59C35.8421 93.0698 42.2813 92.6228 48.15 90.31C51.71 88.85 54.61 86.51 56.05 82.83C59.38 74.3 56.9 69.32 48.12 66.23C38.7 62.92 28.71 61.59 19.39 57.89C6.58004 52.8 -0.299963 43.54 0.010037 31.32C0.380037 16.45 7.80004 6.52001 22.15 2.45001C35.9 -1.45999 49.29 -1.3 61.28 7.85C68.13 13.08 71.5 20.45 73.47 28.63C73.95 30.63 73.14 30.96 71.47 30.95C67.58 30.9 63.69 30.85 59.81 30.95C57.94 31.01 57.34 30.04 56.65 28.52C50.95 15.93 31.94 11.95 21.37 21.07C14.26 27.22 15.55 37.59 24.08 41.63C30.32 44.58 37.08 45.81 43.79 47.42C50.5 49.03 57.05 51.16 62.88 54.86C76.52 63.53 75.67 79.16 71.16 90.42C67.91 98.54 61.62 103.67 53.32 106.08C38.64 110.34 24.4 110.38 11.83 100.14C5.83004 95.26 2.68004 88.54 0.670041 81.19C-0.119959 78.33 0.800038 77.45 3.62004 77.79C5.26104 77.9034 6.90742 77.9168 8.55004 77.83Z" fill="#3561EB"/>
        <path d="M471.21 82.59C471.21 75.86 471.21 69.13 471.21 62.4C471.21 60.49 471.1 59.1 468.72 58.4C453.17 54.13 445.67 43.03 443.1 27.81C441.83 20.24 442.27 12.61 442.1 5C442.05 2.81 442.84 2.16001 444.94 2.23001C448.68 2.36001 452.43 2.40001 456.16 2.23001C458.67 2.11001 459.07 3.23 459.16 5.42C459.35 12.87 458.39 20.36 459.9 27.76C461.97 37.88 467.77 43.06 477.61 43.54C489.29 44.12 496.03 40.09 499 30.17C499.92 27.08 501.32 26.17 504.33 26.45C507.01 26.725 509.71 26.725 512.39 26.45C516.39 26 516.66 27.66 515.87 31.05C512.67 44.8 505.05 54.45 491.14 58.34C488.42 59.1 488.14 60.59 488.14 62.89C488.2 75.89 488.08 88.89 488.24 101.89C488.24 105.16 487.76 106.89 483.95 106.41C479.87 105.84 474.53 108.17 471.95 105.41C469.56 102.92 471.36 97.71 471.25 93.7C471.13 90.07 471.21 86.33 471.21 82.59Z" fill="#3561EB"/>
        <path d="M145.2 54.37C145.2 70.37 145.1 86.37 145.29 102.31C145.29 105.7 144.4 106.86 141.05 106.46C137.1 105.99 131.95 108.12 129.44 105.57C127.15 103.24 128.8 98.18 128.79 94.33C128.74 70.73 128.7 47.13 128.79 23.53C128.79 20.1 128.02 18.78 124.35 18.93C117.35 19.22 110.35 18.93 103.29 19.06C100.76 19.06 99.78 18.29 99.97 15.73C100.3 11.44 98.25 5.97999 100.74 3.16999C103.23 0.359993 108.64 2.42 112.74 2.36C122.15 2.23 131.57 2.47 140.97 2.24C144.29 2.16 145.26 3.00999 145.22 6.41999C145.1 22.4 145.2 38.38 145.2 54.37Z" fill="#3561EB"/>
        <path d="M252.52 84.99C235.71 84.99 221.91 71.13 222.52 54.78C222.624 50.7706 223.53 46.8227 225.186 43.1698C226.842 39.5169 229.214 36.2331 232.161 33.5127C235.108 30.7922 238.571 28.6902 242.344 27.3312C246.117 25.9721 250.125 25.3834 254.13 25.6C257.13 25.73 260.13 26.14 260.04 30.06C259.95 33.98 257.19 34.37 254.04 34.36C242.71 34.3 235.19 39.68 232.17 49.84C229.06 60.28 235.32 71.84 245.89 75.11C256.81 78.53 268.62 72.74 272.08 62.28C274.89 53.79 273.08 46.36 266.82 40.07C264.57 37.81 262.29 35.46 265.15 32.49C268.01 29.52 270.8 31.49 273.21 33.84C281.72 42.09 284.77 55.16 280.6 65.63C275.77 77.69 265.2 84.97 252.52 84.99Z" fill="#FFC300"/>
        <path d="M210.56 55.89C210.64 32.65 229.06 13.68 251.5 13.24C262.452 13.1364 273.024 17.248 281.029 24.7236C289.033 32.1993 293.856 42.4666 294.5 53.4C294.66 56.49 293.97 59.4 290.27 59.59C286.16 59.85 285.65 56.72 285.38 53.53C283.62 33.34 267.46 20.24 247.45 22.75C228.98 25.06 215.73 44.5 220.25 62.62C221.06 65.86 223.03 69.54 218.16 71.27C214.78 72.47 212.75 70.18 211.55 64.27C210.98 61.35 210.3 58.43 210.56 55.89Z" fill="#3561EB"/>
        <path d="M197.98 55.61C197.72 42.5 201.83 31.54 209.27 21.71C211.27 19.12 213.52 17.04 216.72 19.65C219.64 22.03 218.32 24.55 216.46 27.06C195.8 54.98 209.29 91.46 243.26 99.56C246.36 100.3 249.5 101.38 248.56 105.26C247.62 109.14 244.46 109.1 240.99 108.31C215.11 102.38 197.95 81.13 197.98 55.61Z" fill="#3561EB"/>
        <path d="M306.47 52.42C306.39 80.76 287.81 103.42 262.81 108.27C259.53 108.9 256.59 109 255.65 105.2C254.65 101.2 257.6 100.13 260.77 99.43C279.65 95.27 291.61 83.79 296.2 65.06C298.457 55.9946 297.706 46.4413 294.06 37.84C292.69 34.55 292.22 31.45 296.15 30.05C299.63 28.81 301.15 31.47 302.3 34.31C304.742 40.055 306.154 46.1853 306.47 52.42Z" fill="#3561EB"/>
        <path d="M235.6 55.23C235.605 50.7781 237.368 46.5083 240.504 43.3491C243.641 40.1899 247.898 38.3969 252.35 38.36C261.64 38.36 269.65 46.29 269.55 55.45C269.432 59.9842 267.541 64.2913 264.281 67.4458C261.022 70.6002 256.656 72.3503 252.12 72.32C249.912 72.2849 247.734 71.8147 245.708 70.9364C243.682 70.0581 241.85 68.7888 240.315 67.2014C238.781 65.614 237.575 63.7395 236.765 61.6853C235.956 59.6311 235.56 57.4375 235.6 55.23Z" fill="#3561EB"/>
        <path d="M252.57 0.650002C266.953 0.823117 280.684 6.67503 290.77 16.93C293.01 19.16 294.53 21.75 292.14 24.34C289.53 27.18 286.89 25.69 284.43 23.34C268.75 8.34 249.05 5.4 230.02 15.34C227.02 16.89 224.16 17.78 222.31 14.34C220.37 10.72 223.21 8.97 225.95 7.44C234.1 2.94691 243.263 0.609735 252.57 0.650002Z" fill="#3561EB"/>
        <path d="M253.08 97.52C243.41 97.15 235.08 94.7 227.75 89.3C225.29 87.49 223.81 85.3 225.75 82.5C227.69 79.7 230.16 79.92 232.75 81.84C250.37 94.96 273.18 87.25 281.46 71.43C282.83 68.81 285.06 67.12 288.06 69.08C290.84 70.9 290.69 73.27 289.06 76.08C280.71 89.91 268.33 96.66 253.08 97.52Z" fill="#3561EB"/>
        <path d="M165.82 2.33C168.004 2.45653 170.053 3.42805 171.533 5.03883C173.013 6.64962 173.808 8.77322 173.75 10.96C173.62 15.11 169.33 19.24 165.23 19.19C161.13 19.14 156.78 14.58 156.92 10.61C157.1 8.36713 158.114 6.27302 159.761 4.74039C161.408 3.20776 163.57 2.3478 165.82 2.33Z" fill="#FFC300"/>
        <path d="M517.43 10.28C517.356 12.4667 516.443 14.541 514.881 16.0732C513.319 17.6054 511.228 18.4779 509.04 18.51C507.448 18.459 505.907 17.9416 504.607 17.0222C503.306 16.1027 502.305 14.8217 501.726 13.3381C501.148 11.8546 501.018 10.2337 501.352 8.67679C501.686 7.11987 502.471 5.69546 503.608 4.58034C504.744 3.46521 506.184 2.70849 507.747 2.4041C509.31 2.09971 510.928 2.26104 512.4 2.86809C513.872 3.47514 515.134 4.50117 516.028 5.81882C516.922 7.13646 517.41 8.6877 517.43 10.28Z" fill="#FFC300"/>
        <path d="M830.84 10.58C830.78 15.58 827.77 18.58 822.69 18.58C817.61 18.58 814.59 15.41 814.6 10.45C814.601 9.37052 814.818 8.30209 815.237 7.30739C815.656 6.31268 816.27 5.41171 817.042 4.65729C817.814 3.90287 818.729 3.31018 819.734 2.91399C820.738 2.51779 821.811 2.32605 822.89 2.35001C827.9 2.41001 830.89 5.52 830.84 10.58Z" fill="#FFC300"/>
    </g>
    <defs>
        <clipPath id="clip0_108_422">
            <rect width="884.44" height="108.81" fill="white"/>
        </clipPath>
    </defs>
</svg>
