<svg width="300" height="300" viewBox="0 0 300 300" fill="none" xmlns="http://www.w3.org/2000/svg">
    <g clip-path="url(#clip0_203_429)">
        <path d="M150.142 232.13C103.876 232.13 65.8944 193.983 67.5733 148.983C67.8589 137.948 70.3542 127.082 74.912 117.028C79.4695 106.974 85.9968 97.9365 94.1078 90.4492C102.219 82.9616 111.749 77.1765 122.135 73.4359C132.521 69.6952 143.551 68.0749 154.573 68.6711C162.83 69.0289 171.087 70.1573 170.839 80.9463C170.592 91.7353 162.995 92.8087 154.326 92.7812C123.142 92.616 102.445 107.423 94.1329 135.387C85.5733 164.121 102.803 195.937 131.894 204.937C161.949 214.35 194.454 198.414 203.977 169.625C211.711 146.258 206.729 125.809 189.5 108.497C183.307 102.277 177.032 95.8087 184.904 87.6344C192.775 79.4601 200.454 84.8821 207.087 91.35C230.509 114.056 238.904 150.029 227.426 178.845C214.133 212.038 185.041 232.075 150.142 232.13Z" fill="#FFC300"/>
        <path d="M34.6558 152.038C34.876 88.0748 85.5732 35.8638 147.335 34.6528C177.478 34.3676 206.576 45.6839 228.606 66.259C250.637 86.8343 263.912 115.093 265.683 145.185C266.124 153.689 264.225 161.699 254.041 162.222C242.729 162.937 241.326 154.322 240.582 145.543C235.738 89.9739 191.261 53.9188 136.188 60.8271C85.3531 67.1849 48.8852 120.689 61.3255 170.561C63.5549 179.478 68.9769 189.607 55.5732 194.368C46.2705 197.671 40.6833 191.368 37.3806 175.102C35.8118 167.066 33.9402 159.029 34.6558 152.038Z" fill="#3561EB"/>
        <path d="M0.0320074 151.267C-0.68359 115.185 10.6284 85.0197 31.1053 57.9647C36.6099 50.8362 42.8026 45.1115 51.6099 52.295C59.6466 58.8454 56.0136 65.7812 50.8943 72.6894C-5.96796 149.533 31.1604 249.937 124.656 272.231C133.188 274.267 141.83 277.241 139.243 287.92C136.656 298.599 127.959 298.486 118.408 296.312C47.1787 279.991 -0.0505614 221.506 0.0320074 151.267Z" fill="#3561EB"/>
        <path d="M298.629 142.488C298.409 220.488 247.27 282.856 178.463 296.205C169.436 297.939 161.344 298.214 158.757 287.755C156.004 276.746 164.124 273.8 172.848 271.873C224.812 260.423 257.729 228.827 270.362 177.277C276.575 152.326 274.507 126.032 264.472 102.359C260.702 93.3044 259.408 84.772 270.225 80.9188C279.804 77.506 283.987 84.8271 287.152 92.6436C293.873 108.456 297.76 125.328 298.629 142.488Z" fill="#3561EB"/>
        <path d="M103.573 150.222C103.587 137.969 108.438 126.217 117.071 117.522C125.705 108.827 137.422 103.892 149.674 103.79C175.243 103.79 197.289 125.616 197.014 150.827C196.69 163.307 191.483 175.161 182.513 183.843C173.543 192.525 161.525 197.342 149.041 197.258C142.965 197.162 136.968 195.868 131.393 193.45C125.818 191.033 120.775 187.54 116.551 183.17C112.328 178.801 109.008 173.642 106.781 167.988C104.554 162.335 103.464 156.297 103.573 150.222Z" fill="#3561EB"/>
        <path d="M150.28 0.00140816C189.865 0.477872 227.658 16.5841 255.418 44.8087C261.583 50.9463 265.766 58.0748 259.188 65.2032C252.004 73.0197 244.739 68.9188 237.968 62.4509C194.812 21.1665 140.592 13.0748 88.2157 40.4326C79.9588 44.6986 72.0873 47.1482 66.9955 37.6803C61.6561 27.717 69.4723 22.9005 77.0136 18.6894C99.4462 6.32317 124.665 -0.109417 150.28 0.00140816Z" fill="#3561EB"/>
        <path d="M151.683 266.616C125.069 265.598 102.142 258.855 81.9677 243.992C75.197 239.011 71.1236 232.983 76.4631 225.277C81.8025 217.57 88.6007 218.176 95.7291 223.46C144.225 259.57 207.004 238.35 229.793 194.809C233.564 187.598 239.702 182.947 247.958 188.341C255.61 193.35 255.197 199.873 250.711 207.607C227.729 245.671 193.656 264.249 151.683 266.616Z" fill="#3561EB"/>
    </g>
    <defs>
        <clipPath id="clip0_203_429">
            <rect width="300" height="300" fill="white"/>
        </clipPath>
    </defs>
</svg>
